<?xml version="1.0" standalone="no"?>
<!DOCTYPE svg PUBLIC "-//W3C//DTD SVG 20010904//EN"
 "http://www.w3.org/TR/2001/REC-SVG-20010904/DTD/svg10.dtd">
<svg version="1.0" xmlns="http://www.w3.org/2000/svg"
 width="320.000000pt" height="320.000000pt" viewBox="0 0 320.000000 320.000000"
 preserveAspectRatio="xMidYMid meet">
<metadata>
Created by potrace 1.11, written by Peter Selinger 2001-2013
</metadata>
<g transform="translate(0.000000,320.000000) scale(0.100000,-0.100000)"
fill="#000000" stroke="none">
<path d="M0 2935 l0 -265 260 0 260 0 0 265 0 265 -260 0 -260 0 0 -265z"/>
<path d="M530 2935 l0 -265 255 0 255 0 0 265 0 265 -255 0 -255 0 0 -265z"/>
<path d="M1050 2935 l0 -265 183 -3 182 -2 -182 -3 -183 -2 0 -260 0 -259 113
-4 112 -3 -112 -2 -113 -2 -3 -457 -2 -458 -3 458 -2 457 -255 0 -255 0 0
-530 0 -530 243 -3 242 -2 -242 -3 -243 -2 0 -260 0 -260 188 -3 187 -2 -187
-3 -188 -2 0 -265 0 -265 1335 0 1335 0 0 1600 0 1600 -1075 0 -1075 0 0 -265z"/>
<path d="M0 2400 l0 -260 260 0 260 0 0 260 0 260 -260 0 -260 0 0 -260z"/>
<path d="M530 2400 l0 -260 255 0 255 0 0 260 0 260 -255 0 -255 0 0 -260z"/>
<path d="M0 1600 l0 -530 260 0 260 0 0 530 0 530 -260 0 -260 0 0 -530z"/>
<path d="M0 800 l0 -260 260 0 260 0 0 260 0 260 -260 0 -260 0 0 -260z"/>
<path d="M0 265 l0 -265 260 0 260 0 0 265 0 265 -260 0 -260 0 0 -265z"/>
</g>
</svg>
